<?xml version="1.0" encoding="utf-8"?>
<!-- Generator: Adobe Illustrator 27.2.0, SVG Export Plug-In . SVG Version: 6.00 Build 0)  -->
<svg version="1.1" id="Layer_1" xmlns="http://www.w3.org/2000/svg" xmlns:xlink="http://www.w3.org/1999/xlink" x="0px" y="0px"
	 viewBox="0 0 2500 2500" style="enable-background:new 0 0 2500 2500;" xml:space="preserve">
<style type="text/css">
	.st0{fill-rule:evenodd;clip-rule:evenodd;fill:#FFFFFF;stroke:#1D5A98;stroke-width:17.3276;stroke-miterlimit:33.89;}
	.st1{fill-rule:evenodd;clip-rule:evenodd;fill:#1D5A98;stroke:#1D5A98;stroke-width:25.9914;stroke-miterlimit:33.89;}
	.st2{fill-rule:evenodd;clip-rule:evenodd;fill:#FFFFFF;stroke:#1D5A98;stroke-width:25.9914;stroke-miterlimit:33.89;}
	.st3{fill:none;stroke:#1D5A98;stroke-width:25.9914;stroke-miterlimit:33.89;}
	.st4{fill-rule:evenodd;clip-rule:evenodd;fill:#FFFFFF;stroke:#1D5A98;stroke-width:3.1127;stroke-miterlimit:33.89;}
	.st5{fill:none;stroke:#1D5A98;stroke-width:8.6638;stroke-miterlimit:33.89;}
	.st6{fill-rule:evenodd;clip-rule:evenodd;fill:#FFFFFF;stroke:#1D5A98;stroke-width:8.6638;stroke-miterlimit:33.89;}
	.st7{fill-rule:evenodd;clip-rule:evenodd;fill:#1D5A98;}
	.st8{fill-rule:evenodd;clip-rule:evenodd;fill:#FFFFFF;stroke:#1D5A98;stroke-width:6.4979;stroke-miterlimit:33.89;}
	.st9{fill:none;stroke:#1D5A98;stroke-width:4.3319;stroke-miterlimit:33.89;}
	.st10{fill:none;stroke:#1D5A98;stroke-width:77.9742;stroke-miterlimit:33.89;}
	.st11{fill-rule:evenodd;clip-rule:evenodd;fill:#FFFFFF;}
	.st12{fill:none;stroke:#FFFFFF;stroke-width:34.6552;stroke-miterlimit:33.89;}
	.st13{fill-rule:evenodd;clip-rule:evenodd;fill:#1D5A98;stroke:#FFFFFF;stroke-width:13.0995;stroke-miterlimit:33.89;}
	.st14{fill:none;stroke:#1D5A98;stroke-width:8.7287;stroke-miterlimit:33.89;}
	.st15{fill:none;stroke:#1D5A98;stroke-width:6.4979;stroke-miterlimit:33.89;}
	.st16{fill:none;stroke:#1D5A98;stroke-width:15.5897;stroke-miterlimit:33.89;}
	.st17{fill:none;stroke:#1D5A98;stroke-width:15.5897;stroke-linejoin:round;stroke-miterlimit:33.89;}
	
		.st18{fill-rule:evenodd;clip-rule:evenodd;fill:#FFFFFF;stroke:#1D5A98;stroke-width:15.5897;stroke-linejoin:round;stroke-miterlimit:33.89;}
</style>
<path class="st0" d="M36.8,1250.9C36.8,581,581,36.8,1249.1,36.8c671.6,0,1214.1,544.3,1214.1,1214.1
	c0,669.8-542.5,1212.4-1214.1,1212.4C581,2463.2,36.8,1920.7,36.8,1250.9z"/>
<path class="st1" d="M99.6,1250.9C99.6,614.2,614.2,99.6,1249.1,99.6c636.7,0,1151.3,514.6,1151.3,1151.3
	c0,635-514.6,1149.6-1151.3,1149.6C614.2,2400.4,99.6,1885.8,99.6,1250.9L99.6,1250.9z"/>
<path class="st2" d="M329.8,1250.9c0-509.4,411.7-921,919.3-921c509.4,0,921,411.7,921,921c0,507.6-411.7,919.3-921,919.3
	C741.5,2170.2,329.8,1758.5,329.8,1250.9L329.8,1250.9z"/>
<path class="st2" d="M1348.6,752l8.7-125.6l19.2-19.2l7-52.3h-268.6l8.7,52.3l19.2,19.2l8.7,125.6L1348.6,752L1348.6,752z"/>
<path class="st3" d="M1172.4,396.1v59.3l27.9,27.9l-8.7,68l-19.2,20.9h155.2l-19.2-20.9l-10.5-68l29.7-27.9v-59.3L1172.4,396.1
	L1172.4,396.1z"/>
<path class="st4" d="M1296.2,396.1h31.4v24.4h-31.4V396.1z M1233.4,396.1h31.4v24.4h-31.4V396.1z M1172.4,396.1h31.4v24.4h-31.4
	V396.1z"/>
<path class="st3" d="M1512.5,450.2v59.3l-27.9,29.6l8.7,68l19.2,19.2L1523,752h-174.5l8.7-125.6l19.2-19.2l10.5-68l-29.6-29.6v-59.3
	H1512.5L1512.5,450.2z"/>
<path class="st4" d="M1481.1,450.2h31.4v24.4h-31.4V450.2z M1420.1,450.2h29.6v24.4h-29.6V450.2z M1357.3,450.2h31.4v24.4h-31.4
	V450.2z"/>
<path class="st3" d="M985.7,450.2v59.3l29.7,29.6l-8.7,68l-20.9,19.2L977,752h174.4l-8.7-125.6l-19.2-19.2l-10.5-68l29.6-29.6v-59.3
	H985.7z"/>
<path class="st4" d="M987.5,450.2h31.4v24.4h-31.4V450.2z M1048.5,450.2h31.4v24.4h-31.4V450.2z M1111.3,450.2h31.4v24.4h-31.4
	V450.2z M1193.3,532.2h57.6v26.2h-66.3l7-7L1193.3,532.2L1193.3,532.2z"/>
<path class="st4" d="M1221.2,504.3h57.6v27.9h-57.6V504.3z M1198.5,504.3h22.7v27.9h-27.9L1198.5,504.3z M1193.3,476.4h57.6v27.9
	h-52.3l1.7-20.9L1193.3,476.4L1193.3,476.4z M1221.2,448.4h57.6v27.9h-57.6V448.4z M1172.4,448.4h48.8v27.9h-27.9l-20.9-20.9V448.4z
	 M1191.6,420.5h59.3v27.9h-59.3V420.5z"/>
<path class="st4" d="M1250.9,420.5h57.6v27.9h-57.6V420.5z M1172.4,420.5h19.2v27.9h-19.2V420.5z M1308.4,420.5h19.2v27.9h-19.2
	V420.5z M1327.6,448.4h-48.8v27.9h27.9l20.9-20.9V448.4z M1305,532.2h-55.8v26.2h66.3l-7-7L1305,532.2z"/>
<path class="st4" d="M1301.5,504.3h-22.7v27.9h26.2L1301.5,504.3z M1306.7,476.4h-57.6v27.9h52.3l-3.5-20.9L1306.7,476.4
	L1306.7,476.4z"/>
<path class="st5" d="M1172.4,396.1v59.3l27.9,27.9l-8.7,68l-19.2,20.9h155.2l-19.2-20.9l-10.5-68l29.7-27.9v-59.3L1172.4,396.1
	L1172.4,396.1z"/>
<path class="st6" d="M1348.6,752l8.7-125.6l19.2-19.2l7-52.3h-268.6l8.7,52.3l19.2,19.2l8.7,125.6L1348.6,752L1348.6,752z"/>
<path class="st7" d="M1205.5,554.9h29.7v29.6h-29.7V554.9z M1264.8,554.9h29.7v29.6h-29.7V554.9z"/>
<path class="st8" d="M1318.9,752h-137.8v-90.7c0-38.4,31.4-68,68-68c38.4,0,69.8,29.6,69.8,68V752z"/>
<path class="st7" d="M1291,752h-82v-85.5c0-24.4,19.2-41.9,40.1-41.9c24.4,0,41.9,17.4,41.9,41.9V752z"/>
<path class="st9" d="M1181.1,666.5h136.1 M1181.1,692.7h136.1 M1181.1,720.6h136.1 M1249.1,671.7v-78.5 M1249.1,671.7l-36.6-66.3
	 M1249.1,671.7l-62.8-36.6 M1250.9,671.7l61-36.6 M1249.1,671.7l38.4-66.3"/>
<path class="st4" d="M1036.3,724.1h57.6V752h-57.6V724.1z M978.8,724.1h57.6V752H977L978.8,724.1L978.8,724.1z M1006.7,696.2h57.6
	v27.9h-57.6V696.2z M1064.2,696.2h59.3v27.9h-59.3V696.2z M982.2,696.2h24.4v27.9h-27.9L982.2,696.2z"/>
<path class="st4" d="M1036.3,670h57.6v26.2h-57.6V670z M984,670h52.3v26.2h-54.1L984,670z M1006.7,642.1h57.6V670h-57.6V642.1z
	 M1064.2,642.1h59.3V670h-59.3V642.1z M985.7,642.1h20.9V670H984L985.7,642.1z M1036.3,614.2h57.6v27.9h-57.6V614.2z M999.7,614.2
	h36.6v27.9h-50.6v-15.7L999.7,614.2L999.7,614.2z"/>
<path class="st4" d="M1008.4,586.3h55.8v27.9h-64.5l7-7L1008.4,586.3L1008.4,586.3z M1036.3,558.3h57.6v27.9h-57.6V558.3z
	 M1013.6,558.3h22.7v27.9h-27.9L1013.6,558.3z M1008.4,530.4h55.8v27.9h-50.6l1.7-19.2L1008.4,530.4z"/>
<path class="st4" d="M1036.3,502.5h57.6v27.9h-57.6V502.5z M987.5,502.5h48.8v27.9h-27.9l-22.7-20.9L987.5,502.5L987.5,502.5z
	 M1006.7,474.6h57.6v27.9h-57.6V474.6z M1064.2,474.6h59.3v27.9h-59.3V474.6z M987.5,474.6h19.2v27.9h-19.2V474.6z"/>
<path class="st4" d="M1123.5,474.6h19.2v27.9h-19.2V474.6z M1142.7,502.5h-48.8v27.9h27.9l20.9-20.9L1142.7,502.5L1142.7,502.5z
	 M1149.7,724.1h-55.8V752h57.6L1149.7,724.1z M1148,696.2h-24.4v27.9h26.2L1148,696.2L1148,696.2z"/>
<path class="st4" d="M1146.2,670h-52.3v26.2h54.1L1146.2,670L1146.2,670z M1144.5,642.1h-20.9V670h22.7L1144.5,642.1z M1130.5,614.2
	h-36.6v27.9h50.6l-1.8-15.7L1130.5,614.2L1130.5,614.2z"/>
<path class="st4" d="M1120,586.3h-55.8v27.9h66.3l-7-7L1120,586.3L1120,586.3z M1116.6,558.3h-22.7v27.9h26.2L1116.6,558.3z
	 M1121.8,530.4h-57.6v27.9h52.3l-3.5-19.2L1121.8,530.4L1121.8,530.4z"/>
<path class="st7" d="M1017.1,450.2h31.4v24.4h-31.4V450.2z M1079.9,450.2h31.4v24.4h-31.4V450.2z"/>
<path class="st5" d="M985.7,450.2v59.3l29.7,29.6l-8.7,68l-20.9,19.2L977,752h174.4l-8.7-125.6l-19.2-19.2l-10.5-68l29.6-29.6v-59.3
	H985.7z"/>
<path class="st4" d="M1406.1,724.1h57.6V752h-57.6V724.1z M1519.5,724.1h-55.8V752h59.3L1519.5,724.1z M1434,696.2h59.3v27.9H1434
	V696.2z"/>
<path class="st4" d="M1376.5,696.2h57.6v27.9h-57.6V696.2z M1517.8,696.2h-24.4v27.9h26.2L1517.8,696.2z"/>
<path class="st4" d="M1406.1,670h57.6v26.2h-57.6V670z M1516,670h-52.3v26.2h54.1L1516,670z M1434,642.1h59.3V670H1434V642.1z"/>
<path class="st4" d="M1376.5,642.1h57.6V670h-57.6V642.1z M1514.3,642.1h-20.9V670h22.7L1514.3,642.1z M1406.1,614.2h57.6v27.9
	h-57.6V614.2z M1500.3,614.2h-36.6v27.9h50.6l-1.8-15.7L1500.3,614.2L1500.3,614.2z"/>
<path class="st4" d="M1491.6,586.3H1434v27.9h66.3l-7-7L1491.6,586.3L1491.6,586.3z M1406.1,558.3h57.6v27.9h-57.6V558.3z
	 M1486.4,558.3h-22.7v27.9h27.9L1486.4,558.3z M1491.6,530.4H1434v27.9h52.3l-1.8-19.2L1491.6,530.4z"/>
<path class="st4" d="M1406.1,502.5h57.6v27.9h-57.6V502.5z M1512.5,502.5h-48.8v27.9h27.9l20.9-20.9V502.5L1512.5,502.5z
	 M1434,474.6h59.3v27.9H1434V474.6z"/>
<path class="st4" d="M1376.5,474.6h57.6v27.9h-57.6V474.6z M1493.4,474.6h19.2v27.9h-19.2V474.6z M1357.3,474.6h19.2v27.9h-19.2
	V474.6z M1357.3,502.5h48.8v27.9h-27.9l-20.9-20.9V502.5L1357.3,502.5z M1350.3,724.1h55.8V752h-57.6L1350.3,724.1z M1352,696.2
	h24.4v27.9h-26.2L1352,696.2L1352,696.2z"/>
<path class="st4" d="M1353.8,670h52.3v26.2H1352L1353.8,670L1353.8,670z M1355.5,642.1h20.9V670h-22.7L1355.5,642.1z M1369.5,614.2
	h36.6v27.9h-50.6l1.7-15.7L1369.5,614.2L1369.5,614.2z"/>
<path class="st4" d="M1380,586.3h55.8v27.9h-66.3l7-7L1380,586.3L1380,586.3z M1383.5,558.3h22.7v27.9H1380L1383.5,558.3z
	 M1378.2,530.4h57.5v27.9h-52.3l3.5-19.2L1378.2,530.4z"/>
<path class="st5" d="M1512.5,450.2v59.3l-27.9,29.6l8.7,68l19.2,19.2L1523,752h-174.5l8.7-125.6l19.2-19.2l10.5-68l-29.6-29.6v-59.3
	H1512.5L1512.5,450.2z"/>
<path class="st7" d="M1325.9,554.9h27.9v29.6h-27.9V554.9z M1146.2,554.9h27.9v29.6h-27.9V554.9z M1449.7,450.2h31.4v24.4h-31.4
	V450.2z M1388.7,450.2h31.4v24.4h-31.4V450.2z M1264.8,396.1h31.4v24.4h-31.4V396.1z M1203.8,396.1h29.6v24.4h-29.6L1203.8,396.1
	L1203.8,396.1z"/>
<path class="st10" d="M1249.1,1894.5c1.7-1.7,526.8-197.1,526.8-779.7V783.4H724.1v331.4C724.1,1697.4,1249.1,1894.5,1249.1,1894.5
	L1249.1,1894.5z"/>
<path class="st11" d="M1249.1,1894.5c1.7-1.7,526.8-197.1,526.8-779.7V783.4H724.1v331.4C724.1,1697.4,1250.9,1892.8,1249.1,1894.5
	L1249.1,1894.5z"/>
<path class="st9" d="M1416.6,783.4v1017.3 M1748,783.4v553.5 M1692.2,783.4v702.1 M1582.3,783.4v867.4 M1444.5,783.4v996.8
	 M1526.5,783.4v926.6 M1470.7,783.4v976.2 M1360.8,783.4v1053.9 M1305,783.4v1085.2 M1277,783.4v1098.9 M1195,783.4v1085.2
	 M1167.1,783.4v1070.1 M1388.7,783.4v1036.3 M1638.1,783.4v794.5 M1332.9,783.4v1070.2 M1223,783.4v1099.1 M973.5,783.4v926.1
	 M1139.2,783.4v1053.8 M1083.4,783.4v1017.1 M1001.4,783.4v951.9 M1055.5,783.4v996.5 M1027.6,783.4v974.3 M917.7,783.4v866.8
	 M861.9,783.4v793.9 M834,783.4v749.9 M779.9,783.4V1422 M752,783.4v553.1 M945.6,783.4v897.8 M1111.3,783.4v1036.1 M889.8,783.4
	v832.6 M806,783.4v698.2 M724.1,783.4v331.4 M1775.9,783.4v331.4 M1720.1,783.4v639.2 M1666,783.4v750.4 M1554.4,783.4v898.3
	 M1498.6,783.4v952.4 M1610.2,783.4v833.1 M1249.1,783.4v1111.2"/>
<path class="st12" d="M1249.1,1894.5c1.7-1.7,526.8-197.1,526.8-779.7V783.4H724.1v331.4C724.1,1697.4,1249.1,1894.5,1249.1,1894.5
	L1249.1,1894.5z"/>
<path class="st13" d="M1161.9,1571.8c0-48.8,40.1-89,87.2-87.2c48.8-1.8,89,38.4,89,87.2s-40.1,87.2-89,89
	C1202,1659.1,1161.9,1620.7,1161.9,1571.8z M884.6,968.3c0-48.8,40.1-89,89-89c48.8,0,87.2,40.1,87.2,89c0,47.1-38.4,87.2-87.2,87.2
	C924.7,1055.5,884.6,1015.4,884.6,968.3z M1439.3,968.3c0-48.8,40.1-89,87.2-89c48.8,0,89,40.1,89,89c0,47.1-40.1,87.2-89,87.2
	C1479.4,1055.5,1439.3,1015.4,1439.3,968.3z"/>
<path class="st11" d="M767.7,1390.4c-34.9-104.7-41.9-181.4-43.6-280.8h1051.9c0,80.2-8.7,176.2-43.6,280.8H767.7z"/>
<path class="st7" d="M1291,1130.5h80.3v80.2H1291V1130.5z M1291,1291h80.3v80.3H1291V1291z M1371.3,1210.8h80.2v80.2h-80.2V1210.8z
	 M1451.5,1130.5h80.3v80.2h-80.3V1130.5z M1451.5,1291h80.3v80.3h-80.3V1291z M1531.7,1210.8h80.2v80.2h-80.2V1210.8z M1612,1130.5
	h82v80.2h-82L1612,1130.5L1612,1130.5z M1612,1291h82v80.3h-82L1612,1291L1612,1291z M806,1130.5h80.2v80.2H806V1130.5z M806,1291
	h80.2v80.3H806V1291z M1048.5,1210.8h80.2v80.2h-80.2V1210.8z M968.3,1130.5h80.2v80.2h-80.2V1130.5z M968.3,1291h80.2v80.3h-80.2
	V1291z M1128.8,1130.5h80.2v80.2h-80.2V1130.5z M1128.8,1291h80.2v80.3h-80.2V1291z M1209,1210.8h82v80.2h-82V1210.8z M886.3,1210.8
	h82v80.2h-82V1210.8z M729.3,1210.8H806v80.2h-64.5l-3.5-12.2l-3.5-17.5l-1.7-17.4l-1.8-17.4L729.3,1210.8L729.3,1210.8z
	 M1770.7,1210.8h-76.8v80.2h64.6l1.8-12.2l3.5-17.5l3.5-17.4l1.8-17.4L1770.7,1210.8L1770.7,1210.8z"/>
<path class="st14" d="M1249.1,1894.5c1.7-1.7,526.8-197.1,526.8-779.7V783.4H724.1v331.4C724.1,1697.4,1249.1,1894.5,1249.1,1894.5
	L1249.1,1894.5z"/>
<path class="st15" d="M396.1,1840.5C281,1673,213,1468.9,211.2,1250.9c1.7-181.4,47.1-350.6,127.3-497.2"/>
<path class="st8" d="M202.5,1596.3c27.9-38.4,41.9-61,45.4-90.7c-3.5-31.4,0-36.6-22.7-83.7C158.9,1493.4,188.5,1545.7,202.5,1596.3
	L202.5,1596.3z"/>
<path class="st8" d="M336.8,1557.9c-41.9-17.5-66.3-31.4-83.7-55.8c-12.2-27.9-17.4-29.6-22.7-82
	C310.6,1442.8,324.6,1509.1,336.8,1557.9L336.8,1557.9z M244.4,1702.7c24.4-40.1,34.9-64.6,34.9-94.2c-5.2-29.7-3.5-36.6-29.6-82
	C190.3,1606.7,225.2,1655.6,244.4,1702.7L244.4,1702.7z"/>
<path class="st8" d="M373.4,1650.4c-43.6-12.2-69.8-24.4-89-45.4c-15.7-26.2-19.2-27.9-31.4-80.3
	C335.1,1538.7,356,1603.2,373.4,1650.4L373.4,1650.4z M296.7,1805.6c20.9-43.6,29.7-69.8,26.2-97.7c-8.7-29.6-7-34.9-40.1-78.5
	C233.9,1714.9,274,1760.2,296.7,1805.6z"/>
<path class="st8" d="M420.5,1739.3c-45.4-8.7-71.5-17.5-94.2-34.9c-17.4-26.1-20.9-26.1-38.4-76.8
	C369.9,1632.9,399.6,1693.9,420.5,1739.3z M359.5,1901.5c17.4-45.4,22.7-71.5,15.7-99.4c-12.2-29.7-10.5-34.9-47.1-75
	C288,1817.8,333.3,1857.9,359.5,1901.5L359.5,1901.5z"/>
<path class="st8" d="M476.4,1823c-45.4-3.5-73.3-8.7-95.9-26.2c-20.9-22.7-26.2-22.7-47.1-71.5
	C415.3,1721.9,450.2,1779.4,476.4,1823L476.4,1823z M469.4,1932.9c-7-62.8-24.4-99.4-92.4-129.1
	C376.9,1880.6,403.1,1910.3,469.4,1932.9z M171.1,1484.6c33.2-33.2,48.8-55.8,54.1-83.7c1.7-31.4,5.2-36.6-12.2-87.2
	C139.7,1378.2,164.1,1434,171.1,1484.6L171.1,1484.6z"/>
<path class="st8" d="M308.9,1460.2c-40.1-20.9-62.8-38.4-76.8-62.8c-10.5-29.6-14-31.4-14-83.7
	C294.9,1343.3,301.9,1411.3,308.9,1460.2L308.9,1460.2z M171.1,1015.4c33.2,33.1,48.8,54.1,54.1,83.7c1.7,29.7,5.2,34.9-12.2,87.2
	C139.7,1120,164.1,1064.2,171.1,1015.4L171.1,1015.4z"/>
<path class="st8" d="M308.9,1038.1c-40.1,20.9-62.8,38.4-76.8,62.8c-10.5,29.7-14,31.4-14,85.5
	C294.9,1154.9,301.9,1088.6,308.9,1038.1L308.9,1038.1z M202.5,903.7c27.9,36.6,41.9,59.3,45.4,89c-3.5,31.4,0,36.6-22.7,85.5
	C158.9,1004.9,188.5,952.6,202.5,903.7L202.5,903.7z"/>
<path class="st8" d="M336.8,942.1c-41.9,17.4-66.3,29.7-83.7,54.1c-12.2,27.9-17.4,29.7-22.7,83.7
	C310.6,1055.5,324.6,991,336.8,942.1L336.8,942.1z M244.4,797.3c24.4,38.4,36.6,62.8,34.9,92.4c-5.2,29.7-3.5,36.6-29.6,83.7
	C190.3,893.3,225.2,842.7,244.4,797.3L244.4,797.3z"/>
<path class="st8" d="M373.4,847.9c-43.6,12.2-68,24.4-89,47.1c-15.7,26.2-19.2,26.2-31.4,78.5C335.1,959.6,357.7,895,373.4,847.9z
	 M296.7,694.4c20.9,41.9,29.7,68,26.2,97.7c-8.7,27.9-7,34.9-40.1,78.5C233.9,783.4,274,738,296.7,694.4z"/>
<path class="st8" d="M420.5,759c-45.4,8.7-71.5,17.4-94.2,36.6C308.9,820,305.4,820,288,872.3C371.7,865.4,399.6,804.3,420.5,759
	L420.5,759z M401.3,650.8c0,62.8-12.2,101.2-78.5,139.6C315.9,711.8,338.5,678.7,401.3,650.8z M151.9,1128.8
	c36.6,29.6,55.8,48.8,64.6,76.8c3.5,31.4,7,34.9-5.2,89C132.7,1235.2,150.2,1177.6,151.9,1128.8z"/>
<path class="st8" d="M293.2,1137.5c-38.4,26.2-59.3,43.6-71.5,71.5c-7,29.7-10.5,31.4-5.2,85.5
	C289.7,1254.4,291.4,1188.1,293.2,1137.5L293.2,1137.5z"/>
<path class="st8" d="M172.8,1306.7c-1.8-22.7,14-41.9,34.9-43.6c22.7-1.8,41.9,14,43.6,34.9c1.7,20.9-14,40.1-34.9,43.6
	C195.5,1343.3,176.3,1327.6,172.8,1306.7z"/>
<path class="st15" d="M2103.9,1840.5c116.9-167.5,184.9-371.6,184.9-589.6c0-181.4-47.1-350.6-127.3-497.2"/>
<path class="st8" d="M2297.5,1596.3c-27.9-38.4-41.9-61-45.4-90.7c3.5-31.4,1.8-36.6,22.7-83.7
	C2341.1,1493.4,2311.5,1545.7,2297.5,1596.3L2297.5,1596.3z"/>
<path class="st8" d="M2163.2,1557.9c43.6-17.5,68-31.4,83.7-55.8c14-27.9,17.4-29.6,22.7-82
	C2191.1,1442.8,2175.4,1509.1,2163.2,1557.9z M2255.6,1702.7c-24.4-40.1-34.9-64.6-34.9-94.2c5.2-29.7,3.5-36.6,29.7-82
	C2309.7,1606.7,2274.8,1655.6,2255.6,1702.7z"/>
<path class="st8" d="M2124.8,1650.4c45.4-12.2,71.5-24.4,90.7-45.4c15.7-26.2,19.2-27.9,31.4-80.3
	C2164.9,1538.7,2144,1603.2,2124.8,1650.4L2124.8,1650.4z M2203.3,1805.6c-20.9-43.6-29.6-69.8-26.2-97.7
	c10.5-29.6,8.7-34.9,40.1-78.5C2266.1,1714.9,2226,1760.2,2203.3,1805.6L2203.3,1805.6z"/>
<path class="st8" d="M2079.5,1739.3c45.3-8.7,71.5-17.5,92.5-34.9c19.2-26.1,24.4-26.1,40.1-76.8
	C2130.1,1632.9,2102.1,1693.9,2079.5,1739.3z M2138.8,1901.5c-14-45.4-20.9-71.5-14-99.4c12.2-29.7,10.5-34.9,47.1-75
	C2212,1817.8,2168.4,1857.9,2138.8,1901.5L2138.8,1901.5z"/>
<path class="st8" d="M2023.6,1823c45.4-3.5,73.3-8.7,96-26.2c20.9-22.7,26.2-22.7,47.1-71.5
	C2084.7,1721.9,2049.8,1779.4,2023.6,1823L2023.6,1823z M2030.6,1932.9c7-62.8,24.4-99.4,92.5-129.1
	C2123.1,1880.6,2096.9,1910.3,2030.6,1932.9z M2328.9,1484.6c-31.4-33.2-48.8-55.8-55.8-83.7c0-31.4-1.8-36.6,14-87.2
	C2360.3,1378.2,2337.6,1434,2328.9,1484.6L2328.9,1484.6z"/>
<path class="st8" d="M2191.1,1460.2c40.1-20.9,62.8-38.4,76.8-62.8c10.5-29.6,14-31.4,14-83.7
	C2205.1,1343.3,2198.1,1411.3,2191.1,1460.2z M2328.9,1015.4c-33.1,33.1-48.8,54.1-55.8,83.7c0,29.7-1.8,34.9,14,87.2
	C2360.3,1120,2337.6,1064.2,2328.9,1015.4L2328.9,1015.4z"/>
<path class="st8" d="M2189.4,1038.1c41.9,20.9,64.6,38.4,78.5,62.8c10.5,29.7,14,31.4,14,85.5
	C2205.1,1154.9,2198.1,1088.6,2189.4,1038.1L2189.4,1038.1z M2297.5,903.7c-27.9,36.6-41.9,59.3-45.4,89
	c3.5,31.4,1.8,36.6,22.7,85.5C2341.1,1004.9,2311.5,952.6,2297.5,903.7L2297.5,903.7z"/>
<path class="st8" d="M2163.2,942.1c43.6,17.4,66.3,29.7,83.7,54.1c14,27.9,17.4,29.7,22.7,83.7
	C2191.1,1055.5,2175.4,991,2163.2,942.1z M2255.6,797.3c-24.4,38.4-34.9,62.8-36.6,92.4c7,29.7,5.2,36.6,31.4,83.7
	C2309.7,893.3,2274.8,842.7,2255.6,797.3L2255.6,797.3z"/>
<path class="st8" d="M2124.8,847.9c45.4,12.2,71.5,24.4,90.7,47.1c15.7,26.2,19.2,26.2,31.4,78.5
	C2164.9,959.6,2144,895,2124.8,847.9z M2203.3,694.4c-20.9,41.9-29.6,68-26.2,97.7c8.7,27.9,8.7,34.9,38.4,78.5
	C2266.1,783.4,2226,738,2203.3,694.4z"/>
<path class="st8" d="M2079.5,759c45.3,8.7,71.5,17.4,92.5,36.6c19.2,24.4,24.4,24.4,40.1,76.8C2130.1,865.4,2102.1,804.3,2079.5,759
	L2079.5,759z M2098.7,650.8c0,62.8,12.2,101.2,76.8,139.6C2184.1,711.8,2161.4,678.7,2098.7,650.8z M2346.4,1128.8
	c-34.9,29.6-52.3,48.8-62.8,76.8c-3.5,31.4-7,34.9,5.2,89C2369,1235.2,2349.9,1177.6,2346.4,1128.8z"/>
<path class="st8" d="M2206.8,1137.5c38.4,26.2,59.3,43.6,71.5,71.5c7,29.7,10.5,31.4,5.2,85.5
	C2210.3,1254.4,2210.3,1188.1,2206.8,1137.5L2206.8,1137.5z"/>
<path class="st8" d="M2328.9,1306.7c1.8-20.9-14-40.1-34.9-41.9c-20.9-3.5-40.1,12.2-43.6,34.9c-1.8,20.9,13.9,40.1,34.9,41.9
	C2308,1343.3,2327.2,1327.6,2328.9,1306.7L2328.9,1306.7z"/>
<path class="st11" d="M675.2,1713.2c-97.7-87.2-160.5-355.9-162.2-355.9l102.9,92.4l48.8-122.1c0,0,40.1,216.3,136.1,312.2
	C802.6,1639.9,697.9,1734.1,675.2,1713.2L675.2,1713.2z"/>
<path class="st16" d="M675.2,1713.2c-97.7-87.2-162.2-355.9-162.2-355.9l102.9,92.4l48.8-122.1c0,0,40.1,216.3,136.1,312.2
	C800.8,1639.9,697.9,1734.1,675.2,1713.2L675.2,1713.2z"/>
<path class="st17" d="M800.8,1639.9c-33.1,29.7-87.2-111.6-113.4-76.7"/>
<path class="st11" d="M1824.8,1713.2c97.7-87.2,162.2-355.9,160.5-355.9l-101.2,92.4l-48.8-122.1c0,0-40.1,216.3-137.8,312.2
	C1699.2,1639.9,1802.1,1734.1,1824.8,1713.2L1824.8,1713.2z"/>
<path class="st16" d="M1824.8,1713.2c97.7-87.2,160.5-355.9,160.5-355.9l-101.2,92.4l-48.8-122.1c0,0-40.1,216.3-137.8,312.2
	C1697.4,1639.9,1802.1,1734.1,1824.8,1713.2L1824.8,1713.2z"/>
<path class="st17" d="M1697.4,1639.9c34.9,29.7,89-111.6,115.1-76.7"/>
<path class="st18" d="M1338.1,2074.2c301.8-40.1,546-259.9,619.3-418.7c-73.3-40.1-144.8-92.4-144.8-92.4
	c3.5,13.9-104.7,266.9-476.2,354.1C1338.1,1960.8,1338.1,2028.9,1338.1,2074.2z"/>
<path class="st18" d="M1336.3,1917.2c7,0,50.6,0,68,7l-8.7,52.3c-17.5-7-52.3-10.5-59.3-10.5L1336.3,1917.2L1336.3,1917.2z
	 M1161.9,2074.2c-301.8-40.1-546-259.9-619.3-418.7c73.3-40.1,144.8-92.4,144.8-92.4c-1.8,13.9,104.7,266.9,476.2,354.1
	C1161.9,1960.8,1161.9,2028.9,1161.9,2074.2z"/>
<path class="st18" d="M1163.6,1917.2c-5.2,0-50.6,0-68,7l8.7,52.3c17.4-7,54.1-10.5,59.3-10.5L1163.6,1917.2L1163.6,1917.2z"/>
<path class="st18" d="M1386.9,2093.4c0-45.4,17.5-169.2,17.5-169.2c1.8,12.2-66.3,27.9-155.2,27.9c-87.2,0-155.3-15.7-153.5-27.9
	c0,0,17.4,123.8,17.4,169.2c0,19.2,108.2,19.2,136.1,19.2C1278.8,2112.6,1386.9,2112.6,1386.9,2093.4z"/>
<path class="st7" d="M1172.4,1988.8l-22.7,7v1.7h1.8l5.2-1.7c3.5,1.7,5.2,3.5,5.2,5.2l-7,57.6c-1.7,5.2-3.5,7-14,7v1.8l33.1,3.5
	l1.8-1.8c-10.5-1.8-12.2-3.5-10.5-7l8.7-73.3H1172.4z M1243.9,1994l-45.4-1.8v1.8c0,1.8-1.8,3.5-3.5,7c-1.7,5.2-3.5,7-3.5,7v1.7
	l1.7,1.8c5.2-8.7,7-10.5,12.2-10.5h7l7,1.8h14l-26.2,71.5h8.7l24.4-68l1.8-7l1.7-3.5V1994L1243.9,1994z M1284,2027.1
	c10.5-5.2,15.7-12.2,14-19.2c0-10.5-8.7-17.5-20.9-17.5c-14,0-22.7,8.7-22.7,20.9c0,1.8,1.8,5.2,1.8,7c1.7,3.5,3.5,5.2,7,7
	c0,1.8,3.5,3.5,7,7v1.7c-5.2,3.5-8.7,7-10.5,8.7c-3.5,3.5-3.5,7-3.5,12.2c0,12.2,10.5,19.2,24.4,19.2c14,0,22.7-8.7,22.7-20.9
	c0-8.7-5.2-15.7-19.2-24.4L1284,2027.1L1284,2027.1z M1278.8,2025.4c-10.5-5.2-14-12.2-15.7-19.2c0-7,5.2-12.2,14-12.2
	c7,0,12.2,5.2,14,14C1291,2014.9,1287.5,2020.2,1278.8,2025.4L1278.8,2025.4z M1273.5,2035.9h1.8c14,8.7,17.5,14,19.2,20.9
	c0,8.7-5.2,14-14,14c-8.7,0-15.7-7-15.7-17.5C1264.8,2046.3,1266.6,2041.1,1273.5,2035.9L1273.5,2035.9z M1359,1985.3l-45.4,5.2v3.5
	c0,0-1.8,3.5-1.8,7c-1.8,3.5-1.8,7-1.8,7c-1.8,0-1.8,1.7-1.8,1.7h3.5c3.5-7,5.2-8.7,10.5-10.5h7l5.2-1.8l15.7-1.7l-15.7,75l8.7-1.8
	l14-69.8v-8.7l1.8-3.5L1359,1985.3L1359,1985.3z M664.8,1618.9l-1.7,1.8c3.5,5.2,1.7,8.7-1.8,14l-40.1,64.6l1.8,1.8l69.8-15.7
	c10.5-1.8,12.2-1.8,15.7,3.5l3.5-1.8l-14-20.9l-3.5,1.8l1.7,1.8c1.7,5.2,1.7,7,0,8.7c-1.7,1.7-5.2,1.7-10.5,3.5l-45.4,8.7l26.2-40.1
	c1.7-5.2,5.2-7,5.2-8.7c3.5-1.8,5.2,0,8.7,3.5v1.8l1.8-1.8L664.8,1618.9L664.8,1618.9z M717.1,1692.2l-1.8,1.8c5.2,7,5.2,8.7,0,14
	l-43.6,36.6c-5.2,3.5-8.7,3.5-14-3.5l-1.7,1.7l41.9,50.6l19.2-8.7l-1.8-3.5c-7,1.8-8.7,3.5-14,1.8c-5.2,0-10.5-3.5-17.4-12.2v-1.8
	l-5.2-7c-3.5-3.5-3.5-5.2-1.7-7l24.4-19.2l12.2,15.7c5.2,5.2,5.2,8.7,0,14c0,1.7,0,1.7-1.8,1.7l1.8,1.8l22.7-17.4l-1.7-1.8
	c-8.7,3.5-12.2,5.2-15.7-1.8l-14-15.7l20.9-17.4c1.8-1.8,1.8-1.8,3.5-1.8c0,0,1.7,3.5,7,8.7c7,8.7,10.5,14,12.2,17.5
	c0,3.5,0,5.2-3.5,10.5h-1.8l3.5,3.5l12.2-12.2L717.1,1692.2L717.1,1692.2z M767.7,1751.5l-1.8,1.8l1.8,1.8c3.5,3.5,3.5,7,0,10.5
	l-41.9,43.6c-3.5,5.2-7,3.5-12.2,0l-1.8,1.8l24.4,22.7l1.8-1.8c-5.2-7-7-8.7-1.8-15.7c8.7-7,14-14,17.4-17.5l5.2,5.2l-3.5,47.1
	l14,12.2l1.8-1.8c-5.2-3.5-5.2-5.2-3.5-17.5l1.7-33.1c14,8.7,22.7,7,29.7,0c5.2-5.2,7-10.5,5.2-19.2c-1.8-3.5-7-12.2-12.2-15.7
	L767.7,1751.5L767.7,1751.5z M757.2,1795.1l20.9-22.7c1.8-1.8,3.5-1.8,7,1.8c10.5,10.5,12.2,19.2,5.2,27.9
	c-5.2,3.5-10.5,5.2-15.7,5.2C769.4,1805.6,765.9,1802.1,757.2,1795.1L757.2,1795.1z M830.5,1805.6l-1.7,1.8h1.7l1.7,1.8
	c3.5,3.5,3.5,7,0,12.2l-33.1,45.4c-5.2,7-8.7,7-15.7,0l-1.8,1.8l29.7,22.7l1.7-1.8c-8.7-5.2-8.7-8.7-5.2-14l34.9-47.1
	c3.5-5.2,7-5.2,14,0h1.7l1.8-1.8L830.5,1805.6L830.5,1805.6z M865.4,1833.5l-12.2,15.7l3.5,1.8c3.5-3.5,7-5.2,8.7-7
	c5.2-1.7,7,0,19.2,7l1.8,1.8l-34.9,54.1c-1.7,5.2-7,5.2-14,0v3.5l29.7,17.5l1.7-1.8c-8.7-5.2-8.7-7-5.2-15.7l33.2-52.3l3.5,1.8
	c7,5.2,10.5,7,12.2,10.5c1.8,3.5,1.8,7-1.7,15.7l1.7,1.8l10.5-19.2L865.4,1833.5L865.4,1833.5z M957.8,1882.3l-54.1,50.6
	c-7,5.2-12.2,7-15.7,5.2l-1.7,1.8l22.7,10.5v-1.8c-5.2-3.5-7-5.2-5.2-8.7l3.5-3.5c0,0,3.5-3.5,10.5-8.7v-1.8l29.6,14v1.8
	c-1.8,12.2-1.8,15.7-1.8,19.2c-1.7,1.8-3.5,1.8-10.5,0v1.8l27.9,12.2v-1.8c-3.5-1.8-5.2-3.5-5.2-12.2l1.7-76.8L957.8,1882.3
	L957.8,1882.3z M949.1,1898l-1.8,36.6l-24.4-12.2L949.1,1898L949.1,1898z M1050.3,1920.7c-1.7,1.8-3.5,3.5-5.2,1.8
	c0,0-1.8,0-1.8-1.8l-5.2-3.5c-3.5-1.8-5.2-3.5-7-3.5c-12.2-5.2-24.4,0-27.9,10.5c-3.5,8.7-1.7,15.7,5.2,22.7l8.7,12.2
	c0,0,1.8,1.8,1.8,3.5c7,8.7,7,12.2,5.2,17.5c-3.5,8.7-10.5,10.5-19.2,8.7c-8.7-3.5-14-14-15.7-29.7h-1.7l-5.2,24.4l1.7,1.8
	c1.7-3.5,3.5-3.5,5.2-3.5c0,1.7,1.8,1.7,1.8,1.7l8.7,5.2c0,1.8,1.8,3.5,5.2,3.5c14,5.2,27.9,1.8,31.4-10.5
	c3.5-8.7,1.8-17.5-5.2-26.2l-10.5-12.2c-7-7-8.7-14-7-19.2c3.5-7,8.7-8.7,15.7-7c10.5,5.2,15.7,15.7,14,27.9l3.5,1.7l7-26.2
	L1050.3,1920.7L1050.3,1920.7z M1437.5,1926v1.8h1.8c3.5,0,7,0,12.2,5.2l54.1,55.8l1.8-1.8l1.8-71.5c0-10.5,0-12.2,7-15.7l-1.8-1.8
	l-22.7,8.7v1.8h1.8c5.2-1.8,7-1.8,8.7,1.8v12.2l-1.8,45.4l-33.1-34.9c-3.5-5.2-5.2-7-7-8.7c0-1.8,0-3.5,7-7v-1.8L1437.5,1926z
	 M1533.5,1891.1l1.8,1.8h1.8l1.7-1.8c5.2-1.8,8.7,0,10.5,5.2l26.1,50.6c1.8,7,1.8,10.5-7,14v1.8l33.1-15.7l-1.7-1.7
	c-7,3.5-10.5,3.5-14-3.5l-24.4-50.6c-3.5-7-1.8-8.7,3.5-14h1.8v-1.8L1533.5,1891.1z M1582.3,1864.9l1.8,3.5l1.8-1.8h1.8
	c3.5-1.8,7-1.8,8.7,1.8l33.1,50.6c3.5,5.2,1.8,8.7-5.2,12.2l1.8,1.7l27.9-17.4v-3.5c-8.7,5.2-10.5,5.2-15.7-1.8
	c-5.2-8.7-10.5-15.7-12.2-20.9l5.2-3.5l45.4,14l15.7-8.7l-1.8-1.8c-5.2,1.8-7,1.8-19.2-1.8l-29.7-10.5c10.5-10.5,12.2-19.2,5.2-29.7
	c-3.5-5.2-8.7-7-15.7-7c-5.2,0-14,1.8-19.2,5.2L1582.3,1864.9z M1622.4,1885.8l-15.7-26.2c-1.8-1.8-1.8-3.5,3.5-7
	c12.2-7,20.9-7,26.2,3.5c3.5,5.2,3.5,10.5,1.8,15.7C1636.4,1877.1,1631.2,1880.6,1622.4,1885.8z M1657.3,1816.1l12.2,17.4l3.5-1.8
	c-3.5-5.2-5.2-8.7-5.2-12.2c0-3.5,1.8-7,12.2-15.7l1.8-1.8l41.9,50.6c3.5,3.5,1.8,7-3.5,14l1.8,1.8l26.2-22.7l-1.8-3.5
	c-7,7-8.7,7-15.7,0l-38.4-47.1l1.8-1.8c7-7,10.5-8.7,12.2-8.7c5.2-1.8,8.7,0,15.7,5.2l1.8-1.8l-14-15.7L1657.3,1816.1L1657.3,1816.1
	z M1723.6,1760.2l1.8,1.8c7-7,8.7-7,14-3.5l31.4,29.7c1.8,3.5,5.2,5.2,8.7,5.2c12.2,7,22.7,3.5,33.2-8.7c14-14,14-29.6,0-41.9
	l-27.9-26.2c-7-5.2-7-8.7-1.8-15.7v-1.8l-1.8-1.8l-19.2,20.9l1.8,1.8c7-5.2,10.5-5.2,17.4,1.8l27.9,26.2
	c10.5,8.7,10.5,20.9,1.8,31.4c-10.5,10.5-20.9,10.5-31.4,0l-29.6-27.9c-5.2-5.2-7-8.7-1.8-14l1.8-1.8l-1.8-1.8L1723.6,1760.2z
	 M1819.5,1639.9c1.8,1.8,1.8,3.5,0,5.2c0,0,0,1.8-1.8,1.8l-5.2,3.5c-1.8,1.7-3.5,3.5-5.2,7c-7,10.5-5.2,22.7,3.5,27.9
	c7,5.2,15.7,5.2,24.4,1.8l12.2-5.2c0,0,1.8-1.8,3.5-1.8c10.5-3.5,14-3.5,19.2,0c7,5.2,8.7,14,3.5,20.9c-7,8.7-17.5,10.5-33.1,7
	l-1.8,1.8l24.4,12.2l1.8-1.8c-1.8-1.8-3.5-3.5-1.8-5.2l1.8-1.8l7-7c1.8,0,3.5-1.8,5.2-3.5c8.7-14,7-27.9-3.5-34.9
	c-7-5.2-15.7-5.2-24.4,0l-15.7,5.2c-8.7,5.2-15.7,5.2-19.2,1.8c-5.2-3.5-7-10.5-3.5-15.7c7-8.7,19.2-12.2,31.4-7l1.7-1.7l-22.7-14
	L1819.5,1639.9L1819.5,1639.9z"/>
<path class="st11" d="M596.7,1960.8l-3.5,5.2c10.5,8.7,12.2,14,5.2,22.7l-62.8,76.8c-7,7-10.5,8.7-20.9,1.8c0,0-1.7,0-1.7-1.8
	l-3.5,5.2l54.1,43.6l3.5-3.5c-12.2-10.5-12.2-15.7-3.5-26.1l24.4-31.4l8.7,7c17.4,14,24.4,17.5,36.6,19.2c14,3.5,26.2-1.8,34.9-12.2
	c8.7-10.5,10.5-22.7,5.2-33.2c-3.5-8.7-12.2-20.9-20.9-27.9L596.7,1960.8L596.7,1960.8z M593.2,2048.1l33.1-41.9
	c5.2-5.2,8.7-5.2,15.7,0c12.2,10.5,12.2,22.7-3.5,40.1c-14,17.4-24.4,19.2-41.9,5.2C596.7,2049.8,595,2049.8,593.2,2048.1
	L593.2,2048.1z M706.6,2046.3l-3.5,3.5c12.2,8.7,14,14,10.5,20.9l-55.8,89c-3.5,7-10.5,7-22.7,0l-3.5,5.2l62.8,38.4l1.7-3.5
	c-12.2-8.7-14-14-8.7-22.7l54.1-87.2c5.2-7,10.5-8.7,22.7-1.8h1.7l1.8-3.5L706.6,2046.3L706.6,2046.3z M785.1,2095.2l-17.4,38.4
	l5.2,3.5c7-13.9,15.7-19.2,26.2-20.9c7,0,12.2,0,24.4,5.2l-47.1,101.2c-5.2,10.5-10.5,12.2-22.7,7h-3.5l-1.8,5.2l68,31.4l1.7-5.2
	l-1.7-1.8c-12.2-5.2-14-10.5-10.5-20.9l48.9-102.9c8.7,5.2,14,10.5,17.4,15.7c7,7,7,19.2,3.5,33.2l5.2,1.8l17.4-36.6L785.1,2095.2z
	 M919.4,2158l-12.2,40.1l7,1.8c5.2-14,14-20.9,22.7-24.4c7,0,12.2,0,24.4,1.8l-29.6,108.2c-3.5,12.2-8.7,14-22.7,10.5h-1.7l-1.8,5.2
	L977,2322l1.8-5.2l-3.5-1.8c-12.2-3.5-15.7-8.7-12.2-19.2l31.4-108.2c10.5,3.5,17.4,7,20.9,10.5c7,8.7,10.5,19.2,7,33.1l7,1.8
	l10.5-40.1L919.4,2158L919.4,2158z M1154.9,2206.8h-7l-1.7,3.5c-1.8,1.8-3.5,1.8-5.2,1.8h-1.8l-15.7-7c-4.3-2.2-9.1-3.4-14-3.5
	c-27.9-5.2-47.1,8.7-50.6,33.2c-3.5,17.4,3.5,33.1,20.9,45.3l27.9,17.5c10.5,7,14,14,12.2,22.7c-1.7,14-14,22.7-29.7,20.9
	c-10.5-1.7-20.9-8.7-26.2-19.2c-5.2-7-8.7-17.5-8.7-31.4l-7-1.8l-7,52.3h7c0-3.5,3.5-7,7-5.2c0,0,1.8,0,17.4,7
	c3.5,1.8,8.7,3.5,15.7,3.5c31.4,5.2,54.1-10.5,57.6-34.9c1.7-17.5-5.2-33.2-22.7-45.4l-29.7-20.9c-8.7-5.2-12.2-12.2-10.5-20.9
	c1.7-12.2,12.2-19.2,24.4-17.5c17.4,3.5,33.2,22.7,34.9,43.6l5.2,1.7L1154.9,2206.8L1154.9,2206.8z M1181.1,2212.1v5.2
	c14,1.8,19.2,5.2,19.2,12.2l-1.7,106.4c0,7-7,10.5-19.2,12.2v5.2h69.8c3.5,1.8,12.2,0,19.2-1.7c22.7-3.5,36.6-17.5,38.4-34.9
	c0-10.5-5.2-19.2-12.2-26.2c-7-5.2-14-8.7-27.9-12.2h3.5c12.2-5.2,15.7-7,20.9-10.5c5.2-5.2,8.7-12.2,8.7-20.9
	c0-10.5-5.2-19.2-14-24.4c-8.7-5.2-24.4-8.7-34.9-8.7L1181.1,2212.1L1181.1,2212.1z M1231.7,2276.6l1.7-47.1c0-7,3.5-10.5,10.5-10.5
	c15.7,1.8,22.7,10.5,20.9,29.7C1264.8,2269.6,1257.8,2276.6,1231.7,2276.6z M1231.7,2281.8c10.5,1.8,14,1.8,19.2,3.5
	c14,1.8,19.2,14,19.2,33.1c0,19.2-10.5,29.7-26.2,29.7c-8.7,0-12.2-5.2-12.2-12.2L1231.7,2281.8L1231.7,2281.8z M1331.1,2213.8v5.2
	h1.8c12.2,0,15.7,1.8,17.4,12.2l12.2,75v1.8l1.8,7c5.2,22.7,29.7,34.9,61,29.7c33.2-5.2,48.9-26.2,43.6-59.3l-10.5-71.5
	c-1.8-8.7,1.8-13.9,8.7-15.7l1.8-1.8h3.5l-1.8-5.2l-45.4,7l1.8,5.2c14-1.8,20.9,1.8,22.7,14l10.5,71.5c1.7,8.7,0,17.5-1.8,24.4
	c-3.5,12.2-14,17.4-27.9,20.9c-8.7,1.8-15.7,0-20.9-5.2c-7-3.5-12.2-14-14-22.7v-3.5l-12.2-76.8c-1.8-10.5,1.7-15.7,13.9-17.4
	c0,0,1.8,0,3.5-1.8l-1.8-3.5L1331.1,2213.8L1331.1,2213.8z M1491.6,2187.6l1.8,3.5h3.5c10.5-3.5,15.7,0,19.2,8.7l31.4,94.2
	c3.5,10.5,1.8,14-8.7,19.2c-1.7,0-1.7,1.7-3.5,1.7l1.8,5.2l66.3-22.7l-1.8-5.2c-13.9,3.5-17.4,1.8-22.7-12.2l-14-38.4l5.2-1.8
	l62.8,47.1l40.1-14l-1.8-5.2c-5.2,1.8-7,1.8-8.7,0l-59.3-43.6c12.2-8.7,12.2-8.7,17.5-17.5c3.5-7,5.2-17.5,1.8-26.2
	c-3.5-12.2-12.2-19.2-24.4-20.9c-10.5-1.8-26.2,0-38.4,3.5L1491.6,2187.6L1491.6,2187.6z M1563.1,2234.7l-17.4-50.6
	c-1.8-5.2,0-8.7,8.7-10.5c17.5-7,27.9-1.8,34.9,19.2c3.5,12.2,3.5,22.7-1.7,27.9C1582.3,2227.7,1580.6,2229.5,1563.1,2234.7
	L1563.1,2234.7z M1741.1,2077.7c1.7,7,0,10.5-3.5,12.2c-1.8,1.8-8.7,3.5-17.5,3.5c-7,0-17.5,3.5-24.4,8.7
	c-36.6,19.2-48.8,61-27.9,99.4c12.2,24.4,34.9,38.4,59.3,40.1c14,0,24.4-3.5,38.4-10.5c22.7-12.2,40.1-26.2,45.3-38.4
	c-1.8-3.5-3.5-7-5.2-10.5c-12.2-22.7-12.2-24.4-10.5-29.7c1.8-3.5,3.5-3.5,10.5-8.7l-1.7-5.2l-64.6,33.2l3.5,5.2l3.5-1.8
	c12.2-5.2,17.5-3.5,22.7,7c1.8,1.8,1.8,1.8,1.8,3.5c1,0.9,1.6,2.1,1.8,3.5c0,1.8,1.8,1.8,1.8,1.8c0,1.8,1.8,3.5,1.8,5.2
	c8.7,14,7,17.4-8.7,26.2c-24.4,12.2-47.1-1.8-68-40.1c-20.9-38.4-19.2-64.6,1.8-76.8c17.4-8.7,43.6-3.5,62.8,15.7l5.2-3.5
	l-22.7-41.9L1741.1,2077.7L1741.1,2077.7z M1781.2,2058.5l1.8,3.5c1.8,0,1.8,0,3.5-1.8c8.7-5.2,14-5.2,19.2,0l64.6,83.7
	c5.2,7,1.8,12.2-7,20.9l3.5,3.5l55.8-43.6l-3.5-3.5c-10.5,7-17.5,8.7-22.7,1.8l-31.4-40.1l40.1-29.7l29.6,38.4
	c5.2,7,5.2,12.2-5.2,22.7l3.5,3.5l55.8-43.6l-3.5-3.5c-10.5,7-17.4,7-22.7,1.8l-64.6-83.7c-5.2-7-3.5-12.2,5.2-19.2
	c0,0,0-1.8,1.8-1.8l-3.5-3.5l-55.8,43.6l3.5,3.5c12.2-8.7,17.5-8.7,22.7-1.8l27.9,34.9l-40.1,31.4l-26.2-34.9
	c-7-7-5.2-12.2,5.2-22.7l-3.5-3.5L1781.2,2058.5z M401.3,540.9l3.5,3.5h1.7c8.7-8.7,12.2-8.7,20.9-1.7l54.1,52.3h1.8l5.2,5.2
	c19.2,15.7,45.4,10.5,68-14s22.7-50.6-1.7-75l-52.3-48.8c-7-5.2-7-10.5-3.5-17.4l1.7-1.7v-1.7l-3.5-3.5l-31.4,33.2l5.2,3.5
	c10.5-10.5,17.4-10.5,26.2-3.5l52.3,48.8c7,7,12.2,14,14,20.9c3.5,12.2,0,22.7-10.5,33.2c-5.2,7-12.2,10.5-19.2,10.5
	c-7,0-17.4-3.5-24.4-10.5l-1.8-1.8L450.2,520c-8.7-8.7-8.7-14,0-24.4c0,0,1.8,0,1.8-1.7l-3.5-3.5L401.3,540.9L401.3,540.9z
	 M526.9,413.6l3.5,3.5c5.2-1.7,10.5-1.7,20.9,0l1.7,1.8l62.8,80.2c5.2,5.2,3.5,12.2-3.5,19.2l-1.8,1.8l3.5,5.2l36.6-29.7l-3.5-5.2
	c-12.2,8.7-19.2,8.7-26.2-1.8l-52.3-66.3l141.3,31.4l5.2-3.5l-76.8-99.4c-5.2-7-5.2-10.5,1.8-19.2l1.7-1.8l-3.5-3.5l-34.9,27.9
	l3.5,3.5c13.9-8.7,19.2-7,26.2,1.8l40.1,52.3l-111.6-26.2L526.9,413.6L526.9,413.6z M671.7,308.9l3.5,3.5
	c12.2-5.2,17.4-5.2,22.7,1.8l52.3,90.7c3.5,7,0,14-10.5,20.9l1.7,5.2l64.5-36.6l-3.5-5.2c-14,7-19.2,7-24.4-1.8l-50.6-89
	c-5.2-8.7-3.5-12.2,7-20.9c1.7,0,1.7,0,3.5-1.7l-3.5-3.5L671.7,308.9L671.7,308.9z M762.4,254.8l1.8,5.2c5.2-1.7,7-1.7,10.5,0
	c3.5,0,5.2,1.8,7,3.5c3.5,1.8,8.7,8.7,20.9,19.2l78.5,80.2l5.2-1.7V239.1l-1.8-10.5c0-12.2,1.8-15.7,12.2-22.7l-1.7-3.5l-41.9,15.7
	l1.8,5.2h3.5c10.5-5.2,14-3.5,17.4,1.8v14l1.8,75L827,261.8l-3.5-3.5c-5.2-5.2-7-7-8.7-10.5c-1.8-3.5,1.8-7,7-10.5l3.5-1.8l3.5-1.8
	l-1.8-5.2L762.4,254.8L762.4,254.8z M912.5,195.5l1.8,5.2c14-1.7,19.2,0,20.9,7l26.2,102.9c1.7,8.7-1.8,12.2-15.7,15.7l1.8,5.2
	l118.6-29.6l-1.7-43.6l-7,1.7c-5.2,29.7-17.4,41.9-45.4,48.8c-10.5,3.5-15.7,1.7-17.4-7L982.3,253c10.5-1.7,15.7-1.7,19.2,0
	c8.7,1.8,15.7,8.7,20.9,22.7h5.2l-17.4-69.8l-5.2,1.8c3.5,22.7-3.5,33.1-20.9,38.4h-3.5l-12.2-48.8c-1.8-5.2,0-8.7,10.5-10.5h1.7
	l12.2-3.5c20.9-3.5,33.1,3.5,41.9,24.4h5.2l-10.5-41.9L912.5,195.5L912.5,195.5z M1078.2,157.1v5.2h3.5c12.2,0,15.7,3.5,15.7,14
	l10.5,99.4c1.7,10.5-1.8,14-12.2,15.7h-3.5v5.2l69.8-7v-5.2c-15.7,0-17.4-1.7-19.2-15.7l-5.2-41.9h5.2l50.6,59.3l41.9-3.5v-5.2
	c-5.2,0-7,0-8.7-3.5l-48.8-54.1c14-5.2,15.7-7,20.9-14c7-5.2,8.7-15.7,8.7-24.4c-1.7-12.2-8.7-22.7-19.2-26.2
	c-10.5-5.2-26.2-7-38.4-5.2L1078.2,157.1L1078.2,157.1z M1137.5,219.9l-7-52.3c0-5.2,3.5-8.7,12.2-8.7c17.4-3.5,26.2,5.2,29.7,27.9
	c0,12.2-1.8,20.9-8.7,26.2C1156.7,218.2,1154.9,218.2,1137.5,219.9L1137.5,219.9z M1352,144.9h-7l-1.8,5.2c0,1.8-1.8,1.8-5.2,1.8
	h-1.8l-15.7-5.2c-4.3-2.2-9.1-3.4-13.9-3.5c-27.9-1.7-47.1,14-47.1,38.4c-1.7,17.4,7,31.4,24.4,41.9l29.7,17.4
	c10.5,5.2,14,12.2,14,20.9c-1.8,14-12.2,22.7-27.9,22.7c-10.5-1.7-20.9-7-27.9-15.7c-5.2-7-8.7-17.4-12.2-31.4h-5.2l-3.5,50.6h7
	c0-3.5,3.5-7,7-5.2c0,0,1.8,0,17.5,5.2c3.5,1.7,10.5,1.7,17.4,3.5c29.7,1.8,52.3-15.7,54.1-41.9c0-17.4-8.7-31.4-26.2-41.9
	l-33.1-19.2c-8.7-3.5-12.2-10.5-12.2-19.2c0-12.2,10.5-20.9,24.4-19.2c17.4,0,33.1,19.2,36.6,40.1h7L1352,144.9L1352,144.9z
	 M1392.2,155.4v3.5c14,3.5,17.5,8.7,17.5,17.4l-17.5,101.2c-1.8,8.7-7,12.2-20.9,10.5v5.2l71.5,12.2v-5.2c-14-3.5-17.5-7-17.5-17.4
	l17.5-101.2c0-8.7,5.2-12.2,19.2-10.5h1.8l1.8-5.2L1392.2,155.4L1392.2,155.4z M1496.8,171.1l-12.2,40.1l7,1.7
	c5.2-14,14-20.9,22.7-24.4c7,0,12.2,0,24.4,1.7l-29.6,108.2c-3.5,12.2-8.7,14-22.7,10.5h-1.8l-1.8,5.2l71.5,20.9l1.8-5.2l-3.5-1.7
	c-12.2-3.5-15.7-8.7-12.2-19.2l31.4-108.2c10.5,3.5,17.4,7,20.9,10.5c7,8.7,10.5,19.2,7,33.2l7,1.7l10.5-40.1L1496.8,171.1
	L1496.8,171.1z M1655.6,218.2l-1.8,5.2c5.2,5.2,8.7,10.5,8.7,17.4l5.2,78.5l-14,31.4c-5.2,10.5-10.5,12.2-24.4,5.2l-1.8,5.2
	l66.3,31.4l1.8-5.2c-14-7-15.7-12.2-10.5-24.4l17.4-36.6l57.6-36.6l7-5.2c3.5-1.7,8.7-1.7,15.7,0l1.8-5.2l-41.9-19.2l-1.7,3.5
	l1.7,1.8l3.5,1.7c7,5.2,8.7,8.7,7,12.2c-1.8,5.2-7,8.7-17.5,15.7l-34.9,24.4l-3.5-52.3v-8.7c0-1.7,0-5.2,1.8-7
	c1.8-3.5,5.2-3.5,12.2,0c1.8,0,3.5,1.7,5.2,1.7l1.8-5.2L1655.6,218.2L1655.6,218.2z M1931.2,375.2c-14-8.7-27.9-14-40.1-15.7
	c-24.8-1.7-48.8,8.7-64.6,27.9c-26.2,34.9-20.9,78.5,14,104.7c33.1,26.2,76.8,20.9,102.9-12.2c26.1-33.2,20.9-78.5-12.2-102.9
	L1931.2,375.2L1931.2,375.2z M1926,382.2c19.2,14,14,41.9-12.2,75c-26.2,33.2-50.6,43.6-69.8,29.7c-19.2-15.7-15.7-40.1,12.2-75
	c12.2-15.7,24.4-26.2,36.7-33.2C1905,373.4,1915.5,373.4,1926,382.2z M2014.9,451.9l-3.5,3.5c8.7,10.5,10.5,15.7,3.5,22.7l-75,69.8
	c-8.7,7-12.2,7-22.7-3.5l-5.2,3.5l52.3,55.8l3.5-5.2c-12.2-14-14-17.4-3.5-27.9l34.9-31.4c0,1.7,0,1.7,1.8,3.5
	c12.2,14,10.5,24.4-5.2,41.9l5.2,3.5l50.6-47.1l-3.5-3.5c-15.7,12.2-31.4,12.2-41.9,0c-1.8,0-1.8-1.7-1.8-3.5l36.6-33.2
	c3.5-3.5,7-3.5,14,3.5c0,0,0,1.7,1.8,1.7l7,8.7c7,8.7,10.5,17.4,8.7,26.2c0,5.2-3.5,10.5-8.7,20.9l-1.8,1.8l3.5,3.5l31.4-27.9
	L2014.9,451.9L2014.9,451.9z"/>
</svg>
